<svg xmlns="http://www.w3.org/2000/svg" xmlns:xlink="http://www.w3.org/1999/xlink" version="1.1" width="734px" height="340px" style="shape-rendering:geometricPrecision;text-rendering:geometricPrecision;image-rendering:optimizeQuality;fill-rule:evenodd;clip-rule:evenodd;fill: rgb(0, 0, 0);">
    <g><path style="opacity:0.043" fill="#141414" d="M 394.5,35.5 C 333.664,35.1676 272.998,35.5009 212.5,36.5C 211.883,36.6107 211.383,36.944 211,37.5C 210.667,104.833 210.333,172.167 210,239.5C 209.5,240 209,240.5 208.5,241C 176.833,241.667 145.167,241.667 113.5,241C 113,240.5 112.5,240 112,239.5C 111.667,172.5 111.333,105.5 111,38.5C 110.5,38 110,37.5 109.5,37C 87.9271,36.1735 66.4271,36.3402 45,37.5C 44.3333,124.833 44.3333,212.167 45,299.5C 45.7504,300.126 46.5838,300.626 47.5,301C 160.166,301.5 272.833,301.667 385.5,301.5C 389.634,302.485 393.968,302.818 398.5,302.5C 395.854,303.164 393.021,303.498 390,303.5C 275.506,302.684 161.006,302.184 46.5,302C 44.6667,301.5 43.5,300.333 43,298.5C 42.3333,211.833 42.3333,125.167 43,38.5C 43.3742,37.5838 43.8742,36.7504 44.5,36C 55.5735,34.8541 66.7402,34.3541 78,34.5C 88.5,34.6667 99,34.8333 109.5,35C 110.416,35.3742 111.25,35.8742 112,36.5C 112.569,103.834 113.235,171.168 114,238.5C 129.594,239.163 145.261,239.496 161,239.5C 176.739,239.496 192.406,239.163 208,238.5C 208.333,172.167 208.667,105.833 209,39.5C 209.273,37.6711 210.107,36.1711 211.5,35C 272.668,34.168 333.668,34.3347 394.5,35.5 Z"/></g>
    <g><path style="opacity:0.995" d="M 212.5,36.5 C 273.501,36.3333 334.501,36.5 395.5,37C 431.072,42.2367 452.905,62.4034 461,97.5C 465.356,122.429 458.522,143.596 440.5,161C 432.867,166.981 424.201,170.481 414.5,171.5C 414.5,172.5 414.5,173.5 414.5,174.5C 441.18,178.679 457.347,194.012 463,220.5C 467.998,253.408 456.165,277.908 427.5,294C 414.171,300.166 400.171,302.666 385.5,301.5C 272.833,301.667 160.166,301.5 47.5,301C 46.5838,300.626 45.7504,300.126 45,299.5C 44.3333,212.167 44.3333,124.833 45,37.5C 66.4271,36.3402 87.9271,36.1735 109.5,37C 110,37.5 110.5,38 111,38.5C 111.333,105.5 111.667,172.5 112,239.5C 112.5,240 113,240.5 113.5,241C 145.167,241.667 176.833,241.667 208.5,241C 209,240.5 209.5,240 210,239.5C 210.333,172.167 210.667,104.833 211,37.5C 211.383,36.944 211.883,36.6107 212.5,36.5 Z M 280.5,97.5 C 313.502,97.3334 346.502,97.5 379.5,98C 384.573,99.4056 388.073,102.572 390,107.5C 392,114.833 392,122.167 390,129.5C 387.677,134.92 383.51,137.754 377.5,138C 345.5,138.667 313.5,138.667 281.5,138C 280.874,137.25 280.374,136.416 280,135.5C 279.205,122.788 279.372,110.121 280.5,97.5 Z M 281.5,199.5 C 314.168,199.333 346.835,199.5 379.5,200C 388.99,203.465 392.99,210.298 391.5,220.5C 392.691,230.84 388.358,237.34 378.5,240C 345.836,239.98 313.17,239.813 280.5,239.5C 279.873,226.835 279.706,214.168 280,201.5C 280.717,200.956 281.217,200.289 281.5,199.5 Z"/></g>
    <g><path style="opacity:0.046" d="M 458.5,34.5 C 499.896,34.535 541.229,34.535 582.5,34.5C 619.7,39.534 641.2,60.534 647,97.5C 648.109,116.245 647.443,134.912 645,153.5C 641.532,167.969 633.698,179.469 621.5,188C 615.257,191.289 608.924,194.289 602.5,197C 626.456,230.412 650.289,263.912 674,297.5C 674.49,298.793 674.657,300.127 674.5,301.5C 647.863,302.64 621.197,302.807 594.5,302C 592.04,300.542 589.873,298.709 588,296.5C 553.403,246.306 518.07,196.639 482,147.5C 481.069,145.541 480.236,143.541 479.5,141.5C 479.977,140.522 480.643,139.689 481.5,139C 512.5,138.667 543.5,138.333 574.5,138C 575.655,125.242 575.822,112.409 575,99.5C 574.25,98.8742 573.416,98.3742 572.5,98C 547.771,97.9715 523.104,97.3049 498.5,96C 484.967,78.4337 471.801,60.6003 459,42.5C 457.304,39.8806 457.137,37.214 458.5,34.5 Z"/></g>
    <g><path style="opacity:0.993" fill="" d="M 458.5,36.5 C 500.835,36.3333 543.168,36.5 585.5,37C 615.504,41.6707 635.004,58.5041 644,87.5C 645.586,106.128 645.919,124.795 645,143.5C 641.732,170.762 626.898,187.762 600.5,194.5C 604.122,201.731 608.289,208.731 613,215.5C 632.973,243.64 653.14,271.64 673.5,299.5C 646.84,300.667 620.173,300.833 593.5,300C 556.152,247.323 518.819,194.656 481.5,142C 481.645,141.228 481.978,140.561 482.5,140C 513.833,139.667 545.167,139.333 576.5,139C 577.655,125.909 577.822,112.742 577,99.5C 575.786,97.9512 574.286,96.7845 572.5,96C 547.746,95.9812 523.079,95.3145 498.5,94C 484.531,75.2113 471.198,56.0446 458.5,36.5 Z"/></g>
    <g><path style="opacity:0.025" fill="#141414" d="M 280.5,95.5 C 313.168,95.3334 345.835,95.5 378.5,96C 389.595,99.1181 394.262,106.451 392.5,118C 393.57,125.409 391.57,131.742 386.5,137C 384.754,137.471 383.087,138.138 381.5,139C 347.5,139.667 313.5,139.667 279.5,139C 278.874,138.25 278.374,137.416 278,136.5C 277.333,123.833 277.333,111.167 278,98.5C 279.045,97.6266 279.878,96.6266 280.5,95.5 Z M 280.5,97.5 C 279.372,110.121 279.205,122.788 280,135.5C 280.374,136.416 280.874,137.25 281.5,138C 313.5,138.667 345.5,138.667 377.5,138C 383.51,137.754 387.677,134.92 390,129.5C 392,122.167 392,114.833 390,107.5C 388.073,102.572 384.573,99.4056 379.5,98C 346.502,97.5 313.502,97.3334 280.5,97.5 Z"/></g>
    <g><path style="opacity:0.061" fill="#242424" d="M 398.5,302.5 C 393.968,302.818 389.634,302.485 385.5,301.5C 400.171,302.666 414.171,300.166 427.5,294C 456.165,277.908 467.998,253.408 463,220.5C 457.347,194.012 441.18,178.679 414.5,174.5C 414.5,173.5 414.5,172.5 414.5,171.5C 424.201,170.481 432.867,166.981 440.5,161C 458.522,143.596 465.356,122.429 461,97.5C 452.905,62.4034 431.072,42.2367 395.5,37C 334.501,36.5 273.501,36.3333 212.5,36.5C 272.998,35.5009 333.664,35.1676 394.5,35.5C 433.651,40.1446 456.484,62.1446 463,101.5C 467.393,132.211 456.226,155.045 429.5,170C 426.167,171 422.833,172 419.5,173C 450.405,181.574 465.738,202.074 465.5,234.5C 465.141,263.734 451.808,284.567 425.5,297C 416.899,300.767 407.899,302.6 398.5,302.5 Z"/></g>
    <g><path style="opacity:0.031" fill="#171717" d="M 383.5,240.5 C 350.198,241.479 316.864,241.812 283.5,241.5C 281.549,241.773 280.049,241.107 279,239.5C 278.333,226.167 278.333,212.833 279,199.5C 279.5,199 280,198.5 280.5,198C 313.167,197.333 345.833,197.333 378.5,198C 384.793,199.226 389.293,202.726 392,208.5C 392.667,215.5 392.667,222.5 392,229.5C 391.157,234.828 388.323,238.495 383.5,240.5 Z M 281.5,199.5 C 281.217,200.289 280.717,200.956 280,201.5C 279.706,214.168 279.873,226.835 280.5,239.5C 313.17,239.813 345.836,239.98 378.5,240C 388.358,237.34 392.691,230.84 391.5,220.5C 392.99,210.298 388.99,203.465 379.5,200C 346.835,199.5 314.168,199.333 281.5,199.5 Z"/></g>
    <g><path style="opacity:0.458" fill="#bababa" d="M 383.5,240.5 C 383.389,241.117 383.056,241.617 382.5,242C 349.331,242.831 316.331,242.664 283.5,241.5C 316.864,241.812 350.198,241.479 383.5,240.5 Z"/></g>
</svg>